<svg width="2560" height="1035" viewBox="0 0 2560 1035" fill="none" xmlns="http://www.w3.org/2000/svg">
<mask id="mask0" mask-type="alpha" maskUnits="userSpaceOnUse" x="0" y="0" width="2560" height="1035">
<rect width="2560" height="1035" fill="white"/>
</mask>
<g mask="url(#mask0)">
<path opacity="0.03" d="M1454.3 279.808C1415.85 120.695 305.97 159.109 -17.6613 198.212L-25.5 -45.9684L2381 -234.484C2626.78 165.156 3106.5 1017.02 2060.31 949.678C1390.71 906.579 1502.35 478.699 1454.3 279.808Z" fill="#FF7175"/>
<path opacity="0.03" d="M1371.5 319.347C1333.05 160.234 344.97 198.665 21.3387 237.769L13.5 -6.41223L2394.5 -249.002C2640.28 150.638 3273 1104 1977.51 989.218C1307.91 946.119 1419.55 518.238 1371.5 319.347Z" fill="#FF7175"/>
<path opacity="0.03" d="M1425.94 299.407C1387.49 140.294 333.47 178.725 9.83875 217.829L2.0001 -26.352L2405 -278.501C2650.78 121.138 3412.5 1011.5 2031.95 969.277C1362.35 926.178 1473.99 498.298 1425.94 299.407Z" fill="#FF7175"/>
</g>
</svg>
