<svg width="28" height="28" viewBox="0 0 28 28" fill="none" xmlns="http://www.w3.org/2000/svg">
<path d="M12.9759 21.7827C13.1104 21.9172 13.27 22.0238 13.4458 22.0966C13.6215 22.1694 13.8098 22.2069 14 22.2069C14.1902 22.2069 14.3785 22.1694 14.5543 22.0966C14.73 22.0238 14.8896 21.9172 15.0241 21.7827L20.4859 16.3209C20.7575 16.0493 20.9101 15.6809 20.9101 15.2968C20.9101 14.9127 20.7575 14.5444 20.4859 14.2728C20.2143 14.0012 19.8459 13.8486 19.4618 13.8486C19.0777 13.8486 18.7093 14.0012 18.4377 14.2728L15.4483 17.2622V1.44828C15.4483 1.06417 15.2957 0.695795 15.0241 0.42419C14.7525 0.152586 14.3841 0 14 0C13.6159 0 13.2475 0.152586 12.9759 0.42419C12.7043 0.695795 12.5517 1.06417 12.5517 1.44828V17.2622L9.56232 14.2728C9.29071 14.0012 8.92234 13.8486 8.53823 13.8486C8.15413 13.8486 7.78576 14.0012 7.51415 14.2728C7.24255 14.5444 7.08997 14.9127 7.08997 15.2968C7.08997 15.6809 7.24255 16.0493 7.51415 16.3209L12.9759 21.7827Z" fill="url(#paint0_linear)"/>
<path d="M26.5517 12.5516C26.1676 12.5516 25.7992 12.7042 25.5276 12.9758C25.256 13.2474 25.1034 13.6158 25.1034 13.9999V25.1034H2.89655V13.9999C2.89655 13.6158 2.74397 13.2474 2.47236 12.9758C2.20076 12.7042 1.83238 12.5516 1.44828 12.5516C1.06417 12.5516 0.695795 12.7042 0.42419 12.9758C0.152586 13.2474 0 13.6158 0 13.9999V25.5861C0 26.2263 0.25431 26.8403 0.706984 27.2929C1.15966 27.7456 1.77362 27.9999 2.41379 27.9999H25.5862C26.2264 27.9999 26.8403 27.7456 27.293 27.2929C27.7457 26.8403 28 26.2263 28 25.5861V13.9999C28 13.6158 27.8474 13.2474 27.5758 12.9758C27.3042 12.7042 26.9358 12.5516 26.5517 12.5516Z" fill="url(#paint1_linear)"/>
<defs>
<linearGradient id="paint0_linear" x1="0.841888" y1="10.1178" x2="19.92" y2="20.8533" gradientUnits="userSpaceOnUse">
<stop stop-color="#FF626F"/>
<stop offset="1" stop-color="#D421D7"/>
</linearGradient>
<linearGradient id="paint1_linear" x1="-12.6588" y1="19.5901" x2="1.14853" y2="42.2185" gradientUnits="userSpaceOnUse">
<stop stop-color="#FF626F"/>
<stop offset="1" stop-color="#D421D7"/>
</linearGradient>
</defs>
</svg>
