<svg width="31" height="31" viewBox="0 0 31 31" fill="none" xmlns="http://www.w3.org/2000/svg">
<circle cx="15.5" cy="15.5" r="14" stroke="url(#paint0_linear)" stroke-width="3"/>
<path fill-rule="evenodd" clip-rule="evenodd" d="M16.5 10C16.5 9.17157 15.8284 8.5 15 8.5C14.1716 8.5 13.5 9.17157 13.5 10V14.75H8.75C7.92157 14.75 7.25 15.4216 7.25 16.25C7.25 17.0784 7.92157 17.75 8.75 17.75H13.5V22.5C13.5 23.3284 14.1716 24 15 24C15.8284 24 16.5 23.3284 16.5 22.5V17.75H21.25C22.0784 17.75 22.75 17.0784 22.75 16.25C22.75 15.4216 22.0784 14.75 21.25 14.75H16.5V10Z" fill="url(#paint1_linear)"/>
<defs>
<linearGradient id="paint0_linear" x1="-8.30252" y1="14.3903" x2="16.6975" y2="36.9954" gradientUnits="userSpaceOnUse">
<stop stop-color="#FF626F"/>
<stop offset="1" stop-color="#D421D7"/>
</linearGradient>
<linearGradient id="paint1_linear" x1="0.242436" y1="15.562" x2="15.7424" y2="29.5771" gradientUnits="userSpaceOnUse">
<stop stop-color="#FF626F"/>
<stop offset="1" stop-color="#D421D7"/>
</linearGradient>
</defs>
</svg>
