<svg width="31" height="31" viewBox="0 0 31 31" fill="none" xmlns="http://www.w3.org/2000/svg">
<path fill-rule="evenodd" clip-rule="evenodd" d="M7.948 8.25C7.44775 8.25 7.04175 7.844 7.04175 7.34375V5.22925H4.32299C3.49042 5.22925 2.8125 5.90694 2.8125 6.73952V10.6667H28.1875V6.73952C28.1875 5.90694 27.5096 5.22925 26.677 5.22925H23.9583V7.34375C23.9583 7.844 23.5523 8.25 23.052 8.25C22.5518 8.25 22.1458 7.844 22.1458 7.34375V5.22925H8.85425V7.34375C8.85425 7.844 8.44825 8.25 7.948 8.25ZM22.1458 3.41675H8.85425V1.90625C8.85425 1.406 8.44825 1 7.948 1C7.44775 1 7.04175 1.406 7.04175 1.90625V3.41675H4.32299C2.48991 3.41675 1 4.90644 1 6.73952V11.573V26.677C1 28.5101 2.48991 30 4.32299 30H26.677C28.5101 30 30 28.5101 30 26.677V11.573V6.73952C30 4.90644 28.5101 3.41675 26.677 3.41675H23.9583V1.90625C23.9583 1.406 23.5523 1 23.052 1C22.5518 1 22.1458 1.406 22.1458 1.90625V3.41675ZM28.1875 12.4792V26.677C28.1875 27.5096 27.5096 28.1875 26.677 28.1875H4.32299C3.49042 28.1875 2.8125 27.5096 2.8125 26.677V12.4792H28.1875Z" fill="url(#paint0_linear)"/>
<path d="M7.04175 5.22925H7.54175V4.72925H7.04175V5.22925ZM2.8125 10.6667H2.3125V11.1667H2.8125V10.6667ZM28.1875 10.6667V11.1667H28.6875V10.6667H28.1875ZM23.9583 5.22925V4.72925H23.4583V5.22925H23.9583ZM22.1458 5.22925H22.6458V4.72925H22.1458V5.22925ZM8.85425 5.22925V4.72925H8.35425V5.22925H8.85425ZM22.1458 3.41675V3.91675H22.6458V3.41675H22.1458ZM8.85425 3.41675H8.35425V3.91675H8.85425V3.41675ZM7.04175 3.41675V3.91675H7.54175V3.41675H7.04175ZM23.9583 3.41675H23.4583V3.91675H23.9583V3.41675ZM28.1875 12.4792H28.6875V11.9792H28.1875V12.4792ZM2.8125 12.4792V11.9792H2.3125V12.4792H2.8125ZM6.54175 7.34375C6.54175 8.12014 7.1716 8.75 7.948 8.75V7.75C7.72389 7.75 7.54175 7.56786 7.54175 7.34375H6.54175ZM6.54175 5.22925V7.34375H7.54175V5.22925H6.54175ZM4.32299 5.72925H7.04175V4.72925H4.32299V5.72925ZM3.3125 6.73952C3.3125 6.18318 3.76646 5.72925 4.32299 5.72925V4.72925C3.21437 4.72925 2.3125 5.63071 2.3125 6.73952H3.3125ZM3.3125 10.6667V6.73952H2.3125V10.6667H3.3125ZM28.1875 10.1667H2.8125V11.1667H28.1875V10.1667ZM27.6875 6.73952V10.6667H28.6875V6.73952H27.6875ZM26.677 5.72925C27.2335 5.72925 27.6875 6.18318 27.6875 6.73952H28.6875C28.6875 5.63071 27.7856 4.72925 26.677 4.72925V5.72925ZM23.9583 5.72925H26.677V4.72925H23.9583V5.72925ZM23.4583 5.22925V7.34375H24.4583V5.22925H23.4583ZM23.4583 7.34375C23.4583 7.56786 23.2761 7.75 23.052 7.75V8.75C23.8284 8.75 24.4583 8.12014 24.4583 7.34375H23.4583ZM23.052 7.75C22.8279 7.75 22.6458 7.56786 22.6458 7.34375H21.6458C21.6458 8.12014 22.2756 8.75 23.052 8.75V7.75ZM22.6458 7.34375V5.22925H21.6458V7.34375H22.6458ZM8.85425 5.72925H22.1458V4.72925H8.85425V5.72925ZM9.35425 7.34375V5.22925H8.35425V7.34375H9.35425ZM7.948 8.75C8.72439 8.75 9.35425 8.12014 9.35425 7.34375H8.35425C8.35425 7.56786 8.17211 7.75 7.948 7.75V8.75ZM22.1458 2.91675H8.85425V3.91675H22.1458V2.91675ZM9.35425 3.41675V1.90625H8.35425V3.41675H9.35425ZM9.35425 1.90625C9.35425 1.12986 8.72439 0.5 7.948 0.5V1.5C8.17211 1.5 8.35425 1.68214 8.35425 1.90625H9.35425ZM7.948 0.5C7.1716 0.5 6.54175 1.12986 6.54175 1.90625H7.54175C7.54175 1.68214 7.72389 1.5 7.948 1.5V0.5ZM6.54175 1.90625V3.41675H7.54175V1.90625H6.54175ZM7.04175 2.91675H4.32299V3.91675H7.04175V2.91675ZM4.32299 2.91675C2.21381 2.91675 0.5 4.63025 0.5 6.73952H1.5C1.5 5.18263 2.76601 3.91675 4.32299 3.91675V2.91675ZM0.5 6.73952V11.573H1.5V6.73952H0.5ZM0.5 11.573V26.677H1.5V11.573H0.5ZM0.5 26.677C0.5 28.7862 2.21377 30.5 4.32299 30.5V29.5C2.76606 29.5 1.5 28.234 1.5 26.677H0.5ZM4.32299 30.5H26.677V29.5H4.32299V30.5ZM26.677 30.5C28.7862 30.5 30.5 28.7862 30.5 26.677H29.5C29.5 28.234 28.2339 29.5 26.677 29.5V30.5ZM30.5 26.677V11.573H29.5V26.677H30.5ZM30.5 11.573V6.73952H29.5V11.573H30.5ZM30.5 6.73952C30.5 4.63025 28.7862 2.91675 26.677 2.91675V3.91675C28.234 3.91675 29.5 5.18263 29.5 6.73952H30.5ZM26.677 2.91675H23.9583V3.91675H26.677V2.91675ZM23.4583 1.90625V3.41675H24.4583V1.90625H23.4583ZM23.052 1.5C23.2761 1.5 23.4583 1.68214 23.4583 1.90625H24.4583C24.4583 1.12986 23.8284 0.5 23.052 0.5V1.5ZM22.6458 1.90625C22.6458 1.68214 22.8279 1.5 23.052 1.5V0.5C22.2756 0.5 21.6458 1.12986 21.6458 1.90625H22.6458ZM22.6458 3.41675V1.90625H21.6458V3.41675H22.6458ZM28.6875 26.677V12.4792H27.6875V26.677H28.6875ZM26.677 28.6875C27.7857 28.6875 28.6875 27.7857 28.6875 26.677H27.6875C27.6875 27.2334 27.2334 27.6875 26.677 27.6875V28.6875ZM4.32299 28.6875H26.677V27.6875H4.32299V28.6875ZM2.3125 26.677C2.3125 27.7857 3.21428 28.6875 4.32299 28.6875V27.6875C3.76656 27.6875 3.3125 27.2334 3.3125 26.677H2.3125ZM2.3125 12.4792V26.677H3.3125V12.4792H2.3125ZM28.1875 11.9792H2.8125V12.9792H28.1875V11.9792Z" fill="url(#paint1_linear)"/>
<defs>
<linearGradient id="paint0_linear" x1="-12.1109" y1="14.2128" x2="16.8891" y2="40.4346" gradientUnits="userSpaceOnUse">
<stop stop-color="#FF626F"/>
<stop offset="1" stop-color="#D421D7"/>
</linearGradient>
<linearGradient id="paint1_linear" x1="-12.1109" y1="14.2128" x2="16.8891" y2="40.4346" gradientUnits="userSpaceOnUse">
<stop stop-color="#FF626F"/>
<stop offset="1" stop-color="#D421D7"/>
</linearGradient>
</defs>
</svg>
