<svg width="2537" height="332" viewBox="0 0 2537 332" fill="none" xmlns="http://www.w3.org/2000/svg">
<rect width="2536" height="332" fill="#FBFBFD"/>
<path d="M2117.5 86.5C2042 100.5 1654.8 288.3 1274 207.5C879.455 123.784 564.837 97.9853 473 102C454.04 102.829 331 106 0.5 119V301.5H2536.5V66.5V3L2327 44.75C2327 44.75 2193 72.5 2117.5 86.5Z" fill="#FBF4F6"/>
<path d="M2117 117C2041.5 131 1654.3 318.8 1273.5 238C878.955 154.284 564.337 128.485 472.5 132.5C453.54 133.329 330.5 136.5 0 149.5V332H2536V97V33.5L2326.5 75.25C2326.5 75.25 2192.5 103 2117 117Z" fill="#FFF8F8"/>
</svg>
