<svg width="2536" height="972" viewBox="0 0 2536 972" fill="none" xmlns="http://www.w3.org/2000/svg">
<path opacity="0.05" fill-rule="evenodd" clip-rule="evenodd" d="M426.5 43.5L0.5 73V431.649H10V577.351H7V856.3L118 896.15L334 856.3C394 829.277 780 750.449 900 770C957.365 779.704 1014.73 805.828 1072.1 831.952C1134.73 860.476 1197.37 889 1260 896.15C1328.42 903.961 1396.84 885.456 1465.26 866.951C1516.84 853.001 1568.42 839.052 1620 836.375C1740 830.149 2063 908.977 2123 936L2329.5 971.5L2533 936V577.351H2527V431.649H2536V0L2190.5 43.5C2139.93 43.5 2025.32 71.5961 1900.39 102.222C1751.11 138.816 1587.1 179.022 1500 179.225C1392.39 178.974 1284.77 155.231 1177.16 131.489C1124.77 119.931 1072.39 108.373 1020 99.5251C860 73 506.5 43.5 426.5 43.5Z" fill="#FF7175"/>
</svg>
