<svg width="2570" height="505" viewBox="0 0 2570 505" fill="none" xmlns="http://www.w3.org/2000/svg">
<rect x="11.4536" width="2536" height="341" fill="#FBFBFD"/>
<path d="M2547.19 0L2443.2 31.9972C2339.25 64.4685 2131.24 127.752 1919.67 135.326C1708.1 142.901 1492.82 92.397 1282.46 118.936C1072.1 145.476 866.514 246.688 656.558 279.509C446.555 311.619 232.18 275.339 124.94 256.369L11.4534 237L11.4535 342L180.453 348.113C286.049 341.362 470.261 361.614 681.453 348.113C892.645 334.612 1100.76 361.614 1311.95 348.113C1523.15 334.612 1722.26 361.614 1933.45 348.113C2145.45 343 2357.82 354.863 2463.41 348.113L2547.19 341.362L2547.19 0Z" fill="#FFF8F8"/>
</svg>
