<svg width="2570" height="505" viewBox="0 0 2570 505" fill="none" xmlns="http://www.w3.org/2000/svg">
<rect x="12" width="2536" height="341" fill="white"/>
<path d="M2547.73 0L2443.75 31.9972C2339.8 64.4685 2131.79 127.752 1920.22 135.326C1708.65 142.901 1493.36 92.397 1283 118.936C1072.65 145.476 867.061 246.688 657.104 279.509C447.101 311.619 232.727 275.339 125.486 256.369L11.9998 237L11.9999 342L181 348.113C286.596 341.362 470.808 361.614 682 348.113C893.192 334.612 1101.31 361.614 1312.5 348.113C1523.69 334.612 1722.81 361.614 1934 348.113C2146 343 2358.36 354.863 2463.96 348.113L2547.73 341.362L2547.73 0Z" fill="#FFF8F8"/>
</svg>
