<svg width="50" height="60" viewBox="0 0 50 60" fill="none" xmlns="http://www.w3.org/2000/svg">
<path d="M25.0457 12.9276C16.5567 12.9276 9.62134 19.863 9.62134 28.352C9.62134 32.7906 11.5633 37.0628 14.8368 39.948C17.278 42.3892 17.0561 47.6047 17.0006 47.6601C17.0006 47.9376 17.0561 48.1595 17.278 48.3814C17.4445 48.5479 17.7219 48.6588 17.9438 48.6588H32.0921C32.3695 48.6588 32.5914 48.5479 32.7579 48.3814C32.9243 48.215 33.0353 47.9376 33.0353 47.6601C33.0353 47.6047 32.7579 42.3892 35.1991 39.948C35.2546 39.8925 35.3101 39.837 35.3656 39.7815C38.5836 36.8409 40.47 32.6797 40.47 28.352C40.47 19.863 33.5346 12.9276 25.0457 12.9276ZM33.923 38.5054C33.8675 38.5609 33.7566 38.6718 33.7566 38.7273C31.5927 41.0576 31.2043 44.886 31.1488 46.7169H18.887C18.8316 44.886 18.4432 40.8912 16.1129 38.5054C13.1723 35.9532 11.4523 32.2358 11.4523 28.2965C11.4523 20.8062 17.5 14.7586 24.9902 14.7586C32.4804 14.7586 38.5281 20.8062 38.5281 28.2965C38.5281 32.2358 36.8636 35.9532 33.923 38.5054Z" fill="url(#paint0_linear)"/>
<path d="M24.9901 16.8669C24.4907 16.8669 24.0469 17.3108 24.0469 17.8102C24.0469 18.3095 24.4907 18.7534 24.9901 18.7534C30.5939 18.7534 35.088 23.303 35.088 28.8513C35.088 29.3507 35.5319 29.7945 36.0313 29.7945C36.5306 29.7945 36.9745 29.3507 36.9745 28.8513C37.03 22.2488 31.6481 16.8669 24.9901 16.8669Z" fill="url(#paint1_linear)"/>
<path d="M31.1488 49.713H18.8315C17.5554 49.713 16.5012 50.7672 16.5012 52.0433C16.5012 53.3194 17.5554 54.3736 18.8315 54.3736H31.0933C32.4249 54.3181 33.4791 53.3194 33.4791 52.0433C33.4791 50.7672 32.4249 49.713 31.1488 49.713ZM31.1488 52.4317H18.8315C18.6096 52.4317 18.3877 52.2652 18.3877 51.9878C18.3877 51.7104 18.5541 51.544 18.8315 51.544H31.0933C31.3153 51.544 31.5372 51.7104 31.5372 51.9878C31.5372 52.2652 31.3707 52.4317 31.1488 52.4317Z" fill="url(#paint2_linear)"/>
<path d="M29.3178 55.3168H20.6625C19.3863 55.3168 18.3322 56.371 18.3322 57.6471C18.3322 58.9232 19.3863 59.9774 20.6625 59.9774H29.3178C30.594 59.9774 31.6481 58.9232 31.6481 57.6471C31.6481 56.3155 30.594 55.3168 29.3178 55.3168ZM29.3178 58.0355H20.6625C20.4405 58.0355 20.2186 57.869 20.2186 57.5916C20.2186 57.3142 20.385 57.1477 20.6625 57.1477H29.3178C29.5398 57.1477 29.7617 57.3142 29.7617 57.5916C29.7617 57.869 29.5398 58.0355 29.3178 58.0355Z" fill="url(#paint3_linear)"/>
<path d="M24.9901 8.32249C25.5449 8.32249 25.9333 7.87862 25.9333 7.37927V0.943216C25.9333 0.443866 25.4894 0 24.9901 0C24.4907 0 24.0469 0.443866 24.0469 0.943216V7.37927C24.0469 7.87862 24.4907 8.32249 24.9901 8.32249Z" fill="url(#paint4_linear)"/>
<path d="M40.692 4.77151C40.2481 4.43861 39.6933 4.60506 39.4159 4.99344L35.8649 10.3198C35.532 10.7637 35.643 11.374 36.0869 11.6514C36.2533 11.7624 36.4198 11.8179 36.5862 11.8179C36.9191 11.8179 37.1965 11.6514 37.363 11.374L40.9139 6.04762C41.2468 5.65924 41.1359 5.04893 40.692 4.77151Z" fill="url(#paint5_linear)"/>
<path d="M13.7269 11.5959C13.8934 11.5959 14.0598 11.5405 14.2263 11.4295C14.6701 11.1521 14.7811 10.5418 14.5037 10.0979L11.0637 4.71602C10.7863 4.27215 10.176 4.16118 9.73213 4.4386C9.28826 4.71602 9.1773 5.32633 9.45471 5.7702L12.8947 11.1521C13.1166 11.485 13.394 11.5959 13.7269 11.5959Z" fill="url(#paint6_linear)"/>
<path d="M7.01357 17.4772L1.40976 14.4256C0.96589 14.2037 0.355574 14.3702 0.133641 14.814C-0.143775 15.2579 0.0226742 15.8682 0.522024 16.0901L6.12583 19.1417C6.29228 19.1972 6.40325 19.2527 6.5697 19.2527C6.9026 19.2527 7.2355 19.0862 7.40195 18.7533C7.62388 18.3095 7.45743 17.6991 7.01357 17.4772Z" fill="url(#paint7_linear)"/>
<path d="M49.9021 14.814C49.6802 14.3702 49.0699 14.2037 48.626 14.4256L42.9667 17.4772C42.5229 17.6991 42.3564 18.3095 42.5783 18.7533C42.7448 19.0862 43.0777 19.2527 43.4106 19.2527C43.577 19.2527 43.7435 19.1972 43.8545 19.1417L49.5138 16.0901C49.9576 15.8682 50.1241 15.2579 49.9021 14.814Z" fill="url(#paint8_linear)"/>
<defs>
<linearGradient id="paint0_linear" x1="-4.32538" y1="29.2072" x2="30.5135" y2="56.4041" gradientUnits="userSpaceOnUse">
<stop stop-color="#FF626F"/>
<stop offset="1" stop-color="#D421D7"/>
</linearGradient>
<linearGradient id="paint1_linear" x1="18.2021" y1="22.7569" x2="31.1297" y2="34.4465" gradientUnits="userSpaceOnUse">
<stop stop-color="#FF626F"/>
<stop offset="1" stop-color="#D421D7"/>
</linearGradient>
<linearGradient id="paint2_linear" x1="8.82551" y1="51.8364" x2="11.4297" y2="60.4143" gradientUnits="userSpaceOnUse">
<stop stop-color="#FF626F"/>
<stop offset="1" stop-color="#D421D7"/>
</linearGradient>
<linearGradient id="paint3_linear" x1="12.312" y1="57.4402" x2="15.4658" y2="65.5879" gradientUnits="userSpaceOnUse">
<stop stop-color="#FF626F"/>
<stop offset="1" stop-color="#D421D7"/>
</linearGradient>
<linearGradient id="paint4_linear" x1="23.194" y1="3.79184" x2="26.4845" y2="4.46624" gradientUnits="userSpaceOnUse">
<stop stop-color="#FF626F"/>
<stop offset="1" stop-color="#D421D7"/>
</linearGradient>
<linearGradient id="paint5_linear" x1="33.2137" y1="7.88476" x2="39.968" y2="12.4799" gradientUnits="userSpaceOnUse">
<stop stop-color="#FF626F"/>
<stop offset="1" stop-color="#D421D7"/>
</linearGradient>
<linearGradient id="paint6_linear" x1="6.88406" y1="7.61724" x2="13.6465" y2="12.0945" gradientUnits="userSpaceOnUse">
<stop stop-color="#FF626F"/>
<stop offset="1" stop-color="#D421D7"/>
</linearGradient>
<linearGradient id="paint7_linear" x1="-3.39068" y1="16.5716" x2="1.31637" y2="23.053" gradientUnits="userSpaceOnUse">
<stop stop-color="#FF626F"/>
<stop offset="1" stop-color="#D421D7"/>
</linearGradient>
<linearGradient id="paint8_linear" x1="39.0809" y1="16.5716" x2="43.7841" y2="23.0647" gradientUnits="userSpaceOnUse">
<stop stop-color="#FF626F"/>
<stop offset="1" stop-color="#D421D7"/>
</linearGradient>
</defs>
</svg>
