<svg width="50" height="47" viewBox="0 0 50 47" fill="none" xmlns="http://www.w3.org/2000/svg">
<path fill-rule="evenodd" clip-rule="evenodd" d="M48.9545 22.9425H46.2313V14.9698C46.2296 14.3983 45.7669 13.936 45.1958 13.9344H40.9818V7.15244C40.9794 5.15158 39.3583 3.53051 37.3578 3.52849H23.7421L21.1431 0.918921C20.5073 0.277045 19.6231 -0.0558248 18.722 0.00767524C17.8205 0.0715797 16.9917 0.525382 16.4526 1.25058L14.7652 3.52849H6.21249C2.78268 3.53092 0.00283122 6.31076 0 9.74097V39.8715C0.00283122 43.3013 2.78268 46.0812 6.21249 46.084H45.2581C45.8292 46.082 46.2919 45.6197 46.2935 45.0486V36.7653H48.9646C49.5361 36.7633 49.9984 36.301 50 35.7299V23.9779C49.9935 23.4044 49.5276 22.9433 48.9545 22.9425ZM37.3577 5.59925C37.7698 5.59844 38.165 5.76184 38.4566 6.05345C38.7478 6.34466 38.9112 6.74022 38.9108 7.15237V13.9343H34.1062L25.8128 5.59925H37.3577ZM18.8653 2.07892C18.5652 2.10076 18.2893 2.25162 18.1094 2.49308L9.61896 13.9344H31.1766L19.673 2.37903C19.4602 2.16628 19.1654 2.05708 18.8653 2.07892ZM2.07062 9.74102C2.06981 7.453 3.92466 5.59856 6.21228 5.59937H13.2325L7.04061 13.9345H6.21228C3.92466 13.9349 2.06981 12.0804 2.07062 9.79279V9.74102ZM6.21228 44.0132H44.212H44.2225V36.7755H38.3101C35.4514 36.7746 33.1343 34.4571 33.133 31.5984V28.1196C33.1343 25.2605 35.4514 22.9434 38.3101 22.9426H44.1707V16.0053H33.9719C33.8016 16.0465 33.6241 16.0465 33.4542 16.0053H6.21228C4.68342 16.0073 3.20796 15.4431 2.07062 14.421V39.8716C2.06981 42.1592 3.92466 44.0136 6.21228 44.0132ZM47.919 34.7045H38.2998C36.5865 34.6997 35.1988 33.312 35.1935 31.5983V28.1195C35.1988 26.4059 36.5865 25.0182 38.2998 25.0133H44.8747C45.0834 25.0821 45.3082 25.0821 45.5169 25.0133H47.919V34.7045ZM38.2999 28.1195C38.3015 27.548 38.7642 27.0857 39.3353 27.0841C39.6103 27.0829 39.8744 27.1917 40.0686 27.3862C40.2631 27.5804 40.3719 27.8445 40.3707 28.1195V31.5983C40.3707 32.1702 39.9072 32.6337 39.3353 32.6337C38.7638 32.6337 38.2999 32.1702 38.2999 31.5983V28.1195Z" fill="url(#paint0_linear)"/>
<defs>
<linearGradient id="paint0_linear" x1="-22.605" y1="20.9965" x2="23.7044" y2="66.4277" gradientUnits="userSpaceOnUse">
<stop stop-color="#FF626F"/>
<stop offset="1" stop-color="#D421D7"/>
</linearGradient>
</defs>
</svg>
