<svg width="50" height="50" viewBox="0 0 50 50" fill="none" xmlns="http://www.w3.org/2000/svg">
<path fill-rule="evenodd" clip-rule="evenodd" d="M11.9793 12.5C11.1168 12.5 10.4168 11.8 10.4168 10.9375V7.29187H5.72929C4.29382 7.29187 3.125 8.46031 3.125 9.89578V16.6669H46.875V9.89578C46.875 8.46031 45.7062 7.29187 44.2707 7.29187H39.5832V10.9375C39.5832 11.8 38.8832 12.5 38.0207 12.5C37.1582 12.5 36.4582 11.8 36.4582 10.9375V7.29187H13.5418V10.9375C13.5418 11.8 12.8418 12.5 11.9793 12.5ZM36.4582 4.16687H13.5418V1.5625C13.5418 0.699997 12.8418 0 11.9793 0C11.1168 0 10.4168 0.699997 10.4168 1.5625V4.16687H5.72929C2.56882 4.16687 0 6.73531 0 9.89578V18.2294V44.2708C0 47.4313 2.56882 50.0001 5.72929 50.0001H44.2707C47.4312 50.0001 50 47.4313 50 44.2708V18.2294V9.89578C50 6.73531 47.4312 4.16687 44.2707 4.16687H39.5832V1.5625C39.5832 0.699997 38.8832 0 38.0207 0C37.1582 0 36.4582 0.699997 36.4582 1.5625V4.16687ZM46.875 19.7919V44.2708C46.875 45.7063 45.7062 46.8751 44.2707 46.8751H5.72929C4.29382 46.8751 3.125 45.7063 3.125 44.2708V19.7919H46.875Z" fill="url(#paint0_linear)"/>
<defs>
<linearGradient id="paint0_linear" x1="-22.605" y1="22.7807" x2="27.395" y2="67.9908" gradientUnits="userSpaceOnUse">
<stop stop-color="#FF626F"/>
<stop offset="1" stop-color="#D421D7"/>
</linearGradient>
</defs>
</svg>
